<svg width="756" height="365" viewBox="0 0 756 365" xmlns="http://www.w3.org/2000/svg">
    <path d="M0 183.343C0 288.958 76.74 365 189.749 365c113.842 0 189.737-76.042 189.737-181.657C379.486 78.579 303.591 0 189.75 0 76.739 0 0 78.58 0 183.343m296.844 0c0 65.905-43.851 108.992-107.095 108.992-63.255 0-107.1-43.087-107.1-108.992 0-65.06 43.845-109.838 107.1-109.838 63.244 0 107.095 44.779 107.095 109.838M756 145.483c0-95.386-73.506-143.5-163.904-143.5-91.249 0-163.068 48.114-163.068 143.5V359.05h80.265V156.457c0-55.707 33.796-81.878 82.803-81.878 49.848 0 82.803 26.171 82.803 81.878v202.592H756V145.484z" fill="#C2AEDB" fill-rule="evenodd" opacity=".1"/>
</svg>
