<svg width="193" height="159" viewBox="0 0 193 159" fill="none" xmlns="http://www.w3.org/2000/svg">
<path d="M62.4709 7.61763L76.9625 23.8764M130.492 7.61763L116 23.8764L130.492 7.61763ZM96.4164 2V23.8764V2Z" stroke="#007AFF" stroke-width="2.5" stroke-linecap="round" stroke-linejoin="round"/>
<path fill-rule="evenodd" clip-rule="evenodd" d="M50.4573 43.7792H132.196L124.876 54.759L134.636 62.0789H48.0173L58.9972 54.759L50.4573 43.7792Z" fill="#ECF9FE"/>
<rect x="45.4993" y="59.4463" width="92.6972" height="97.9196" rx="2" fill="white"/>
<path fill-rule="evenodd" clip-rule="evenodd" d="M51.4851 112.983V68.1219C51.4851 66.2736 52.9999 64.7753 54.8685 64.7753L134.479 148.441C134.479 150.905 132.506 152.903 130.073 152.903H55.8914C53.4579 152.903 51.4851 150.905 51.4851 148.441V131.769V127.245V112.983ZM51.4851 122.669V117.645V122.669Z" fill="#ECF9FE"/>
<path d="M46.8044 113.58V64.5185C46.8044 62.4971 48.4632 60.8585 50.5094 60.8585H135.273C136.605 60.8585 137.686 61.9509 137.686 63.2985V152.357C137.686 155.052 135.525 157.237 132.861 157.237H51.6295C48.9647 157.237 46.8044 155.052 46.8044 152.357V134.124V129.177M46.8044 124.172V118.678" stroke="#0079FF" stroke-width="2.5" stroke-linecap="round"/>
<path d="M49.2375 60.8585V46.2187C49.2375 44.8712 50.2179 43.7788 51.4272 43.7788L132.447 43.7788C133.656 43.7788 134.636 44.8712 134.636 46.2187V60.8585" stroke="#0079FF" stroke-width="2.5"/>
<path d="M71.8078 86.4788C74.166 86.4788 76.0777 84.5671 76.0777 82.2089C76.0777 79.8507 74.166 77.939 71.8078 77.939C69.4496 77.939 67.5378 79.8507 67.5378 82.2089C67.5378 84.5671 69.4496 86.4788 71.8078 86.4788Z" fill="#ECF9FE" stroke="#0079FF" stroke-width="2.5" stroke-linecap="round"/>
<path d="M112.067 86.4788C114.425 86.4788 116.336 84.5671 116.336 82.2089C116.336 79.8507 114.425 77.939 112.067 77.939C109.708 77.939 107.797 79.8507 107.797 82.2089C107.797 84.5671 109.708 86.4788 112.067 86.4788Z" fill="#ECF9FE" stroke="#0079FF" stroke-width="2.5" stroke-linecap="round"/>
<path d="M111.456 86.4778C111.456 97.2583 102.717 105.998 91.9365 105.998C81.156 105.998 72.4167 97.2583 72.4167 86.4778" stroke="#0079FF" stroke-width="2.5" stroke-linecap="round"/>
<path d="M50.5317 44.995L59.1205 53.4731C59.6336 53.9796 59.639 54.8063 59.1324 55.3194C59.0448 55.4082 58.9448 55.484 58.8357 55.5445L49.2373 60.8586" stroke="#0079FF" stroke-width="2.5" stroke-linecap="round"/>
<path d="M133.548 45.0834L125.329 53.4659C124.825 53.9808 124.833 54.8074 125.348 55.3122C125.434 55.3965 125.531 55.4684 125.636 55.5261L135.412 60.8585" stroke="#0079FF" stroke-width="2.5" stroke-linecap="round"/>
<path d="M152.557 144.31H181.839M18.0808 144.31H46.0912H18.0808ZM1.27515 144.31H10.2473H1.27515ZM187.975 144.31H191.725H187.975Z" stroke="#0079FF" stroke-width="2.5" stroke-linecap="round" stroke-linejoin="round"/>
</svg>
