<svg
    xmlns="http://www.w3.org/2000/svg"
    width="30"
    height="31"
    viewBox="0 0 30 31"
    fill="none"
>
    <path
        d="M15 30.2549C14.602 30.2549 14.2156 30.1787 13.8406 30.0264C13.4657 29.8741 13.1262 29.6458 12.8221 29.3417L1.15778 17.6774C0.853674 17.3733 0.625458 17.0338 0.473126 16.6589C0.320795 16.2839 0.244629 15.8975 0.244629 15.4995C0.244629 15.1015 0.320795 14.7092 0.473126 14.3225C0.625458 13.9363 0.853674 13.6027 1.15778 13.3216L12.8221 1.65729C13.1262 1.32958 13.4657 1.09546 13.8406 0.954932C14.2156 0.814404 14.602 0.744141 15 0.744141C15.398 0.744141 15.7903 0.814404 16.1771 0.954932C16.5632 1.09546 16.8968 1.32958 17.1779 1.65729L28.8422 13.3216C29.1699 13.6027 29.4041 13.9363 29.5446 14.3225C29.6851 14.7092 29.7554 15.1015 29.7554 15.4995C29.7554 15.8975 29.6851 16.2839 29.5446 16.6589C29.4041 17.0338 29.1699 17.3733 28.8422 17.6774L17.1779 29.3417C16.8968 29.6458 16.5632 29.8741 16.1771 30.0264C15.7903 30.1787 15.398 30.2549 15 30.2549ZM13.5944 17.045H16.4056V8.61339H13.5944V17.045ZM15 21.5071C15.398 21.5071 15.7319 21.3724 16.0017 21.1032C16.2709 20.8339 16.4056 20.5 16.4056 20.1015C16.4056 19.7035 16.2709 19.364 16.0017 19.083C15.7319 18.8019 15.398 18.6614 15 18.6614C14.602 18.6614 14.2681 18.8019 13.9983 19.083C13.7291 19.364 13.5944 19.7035 13.5944 20.1015C13.5944 20.5 13.7291 20.8339 13.9983 21.1032C14.2681 21.3724 14.602 21.5071 15 21.5071Z"
        fill="#CE4736"
    />
</svg>